<?xml version="1.0" standalone="no"?>
<!DOCTYPE svg PUBLIC "-//W3C//DTD SVG 20010904//EN"
 "http://www.w3.org/TR/2001/REC-SVG-20010904/DTD/svg10.dtd">
<svg version="1.0" xmlns="http://www.w3.org/2000/svg"
 width="195.000000pt" height="195.000000pt" viewBox="0 0 195.000000 195.000000"
 preserveAspectRatio="xMidYMid meet">

<g transform="translate(0.000000,195.000000) scale(0.100000,-0.100000)"
fill="#000000" stroke="none">
<path d="M260 1765 l0 -85 338 -350 c185 -193 338 -354 340 -358 1 -5 -157
-173 -353 -375 l-355 -366 0 -81 0 -80 715 0 715 0 0 125 0 125 -449 2 -449 3
171 180 c93 99 232 246 308 326 l138 146 -292 309 -291 309 412 3 412 2 0 125
0 125 -680 0 -680 0 0 -85z"/>
</g>
</svg>
