<?xml version="1.0" standalone="no"?>
<!DOCTYPE svg PUBLIC "-//W3C//DTD SVG 20010904//EN"
 "http://www.w3.org/TR/2001/REC-SVG-20010904/DTD/svg10.dtd">
<svg version="1.0" xmlns="http://www.w3.org/2000/svg"
 width="534.000000pt" height="281.000000pt" viewBox="0 0 534.000000 281.000000"
 preserveAspectRatio="xMidYMid meet">

<g transform="translate(0.000000,281.000000) scale(0.100000,-0.100000)"
fill="#000000" stroke="none">
<path d="M190 2256 l0 -94 368 -383 c202 -210 367 -388 367 -395 0 -6 -172
-190 -382 -407 l-383 -396 0 -90 0 -91 780 0 780 0 0 135 0 135 -492 2 -491 3
336 359 336 359 -98 106 c-54 58 -198 212 -318 341 l-220 235 454 3 453 2 0
135 0 135 -745 0 -745 0 0 -94z"/>
<path d="M2065 2341 c-117 -29 -204 -148 -240 -330 -25 -124 -17 -408 15 -506
38 -118 75 -178 174 -285 110 -117 146 -181 153 -272 7 -82 -11 -144 -52 -185
-28 -28 -40 -33 -79 -33 -77 0 -138 41 -200 134 l-26 39 0 -206 0 -205 33 -28
c55 -46 114 -67 192 -67 211 0 316 183 317 553 0 279 -44 404 -206 579 -122
132 -151 188 -151 291 0 53 6 86 19 114 36 72 117 96 194 57 36 -18 92 -67 92
-80 0 -4 38 -189 85 -411 l85 -405 0 -337 0 -338 90 0 89 0 3 363 3 362 45
200 45 200 6 -255 c4 -161 13 -288 23 -345 60 -342 194 -540 367 -546 109 -4
181 22 248 87 20 19 39 34 43 34 4 0 8 -22 8 -50 0 -38 4 -50 15 -50 10 0 15
10 15 30 0 17 5 30 10 30 6 0 10 9 10 19 0 11 7 26 15 35 8 8 15 25 15 38 0
13 4 28 8 34 5 5 15 29 22 54 8 25 19 48 25 52 12 9 14 120 16 778 0 267 2
481 4 475 2 -5 11 -77 20 -160 8 -82 29 -231 45 -330 17 -99 32 -193 34 -210
15 -136 19 -156 31 -143 6 7 22 47 36 88 13 41 29 81 36 88 7 7 13 22 13 33 0
10 5 19 10 19 14 0 12 48 -5 160 -23 144 -115 785 -115 798 0 9 -38 12 -130
12 l-130 0 0 -410 0 -410 -160 0 -160 0 0 -175 0 -175 80 0 80 0 0 -183 0
-183 -29 -17 c-40 -24 -115 -22 -156 3 -63 39 -118 157 -147 315 -20 109 -17
449 5 559 33 163 93 286 160 327 42 25 128 25 183 0 23 -11 60 -36 83 -56 l41
-37 0 193 0 194 -43 26 c-59 37 -112 53 -182 52 -121 0 -220 -73 -298 -219
-20 -38 -37 -63 -37 -56 0 7 11 64 25 128 14 64 25 117 25 120 0 2 -42 4 -93
4 l-93 0 -68 -367 c-37 -203 -71 -394 -73 -426 -3 -32 -9 -60 -13 -62 -4 -2
-10 24 -13 58 -4 34 -37 227 -74 430 l-67 367 -77 0 c-43 0 -104 7 -136 15
-61 16 -90 17 -138 6z m1725 -831 c0 -5 -4 -10 -10 -10 -5 0 -10 5 -10 10 0 6
5 10 10 10 6 0 10 -4 10 -10z"/>
<path d="M4100 2308 c0 -7 -11 -83 -24 -168 -13 -85 -23 -156 -21 -158 2 -2
11 24 21 57 10 34 22 61 26 61 4 0 8 14 8 30 0 17 4 30 10 30 5 0 12 16 16 35
3 19 10 35 14 35 4 0 10 10 13 23 3 12 9 32 12 45 7 20 4 22 -34 22 -26 0 -41
-5 -41 -12z"/>
</g>
</svg>
